<?xml version="1.0" ?><!DOCTYPE svg  PUBLIC '-//W3C//DTD SVG 1.1//EN'  'http://www.w3.org/Graphics/SVG/1.1/DTD/svg11.dtd'><svg enable-background="new 0 0 512 512" height="512px" id="Layer_1" version="1.1" viewBox="0 0 512 512" width="512px" xml:space="preserve" xmlns="http://www.w3.org/2000/svg" xmlns:xlink="http://www.w3.org/1999/xlink"><g><path d="M498.44,460.747l-54.306-199.895c-1.893-6.968-8.219-11.852-15.44-11.852H301.086   c-3.547,5.288-7.353,10.621-11.439,16h139.047L483,465H29l54.306-200h32.506c-4.037-5.379-7.799-10.712-11.303-16H83.306   c-7.221,0-13.547,4.875-15.44,11.843L13.56,460.709c-1.307,4.81-0.298,10.002,2.729,13.961C19.316,478.629,24.016,481,29,481h454   c4.984,0,9.684-2.361,12.711-6.321C498.738,470.72,499.747,465.557,498.44,460.747z" fill="#444444"/><path d="M203,29.527c-67.802,0-122.766,54.964-122.766,122.766c0,92.453,122.008,187.18,122.008,187.18   s123.524-94.727,123.524-187.18C325.766,84.491,270.802,29.527,203,29.527z M203,224.285c-39.76,0-71.992-32.232-71.992-71.992   S163.24,80.301,203,80.301s71.992,32.232,71.992,71.992S242.76,224.285,203,224.285z" fill="#444444"/><g><path d="M106.44,474.052c-3.244-7.208-5.03-15.873-5.03-24.398c0-0.731,0.013-1.467,0.04-2.204l9.993,0.359    c-0.022,0.618-0.033,1.232-0.033,1.845c0,7.142,1.474,14.349,4.149,20.295L106.44,474.052z M112.598,438.831l-9.753-2.211    c2.086-9.199,6.334-17.334,12.628-24.179l7.361,6.77C117.736,424.754,114.292,431.355,112.598,438.831z M299.117,431.567    c-1.58,0-3.184-0.03-4.768-0.091l0.379-9.992c7.576,0.284,15.164-0.185,22.438-1.414c0.453-0.077,0.907-0.157,1.361-0.24    l1.801,9.836c-0.496,0.091-0.992,0.179-1.491,0.264C312.411,431.017,305.777,431.567,299.117,431.567z M284.007,430.683    c-7.952-0.913-16.202-2.523-25.221-4.925l2.574-9.664c8.542,2.275,16.323,3.798,23.787,4.653L284.007,430.683z M330.562,427.226    l-2.83-9.592c7.705-2.273,14.89-5.551,21.353-9.739l5.439,8.391C347.253,420.998,339.191,424.679,330.562,427.226z     M248.995,422.938c-8.376-2.579-16.613-5.503-23.88-8.082l3.345-9.424c7.173,2.546,15.304,5.432,23.479,7.949L248.995,422.938z     M129.562,413.204l-5.93-8.053c6.649-4.897,14.739-8.739,24.042-11.419l2.768,9.609    C142.279,405.692,135.254,409.011,129.562,413.204z M215.711,411.537c-7.029-2.446-15.312-5.224-23.45-7.269l2.437-9.699    c8.518,2.141,17.065,5.005,24.302,7.524L215.711,411.537z M363.058,409.979l-6.43-7.658c5.997-5.036,11.141-10.958,15.287-17.603    l8.484,5.295C375.695,397.549,369.861,404.267,363.058,409.979z M182.847,402.245c-5.329-0.93-10.188-1.382-14.852-1.382    c-2.917,0.001-5.78,0.186-8.509,0.548l-1.315-9.914c3.163-0.419,6.468-0.633,9.823-0.634c5.249,0,10.669,0.501,16.572,1.53    L182.847,402.245z M385.449,380.685l-9.07-4.213c3.239-6.973,5.487-14.547,6.684-22.511l9.889,1.484    C391.614,364.354,389.09,372.845,385.449,380.685z M393.969,344.992l-9.988-0.465c0.069-1.496,0.104-3.021,0.104-4.535    c0-6.244-0.595-12.716-1.768-19.233l9.842-1.771c1.278,7.102,1.926,14.168,1.926,21.005    C394.085,341.66,394.046,343.343,393.969,344.992z M380.245,311.376c-1.954-7.483-4.677-15.135-8.091-22.741l9.123-4.096    c3.641,8.112,6.549,16.291,8.644,24.31L380.245,311.376z M367.921,279.895c-2.963-5.702-6.36-11.47-10.097-17.145l8.352-5.5    c3.925,5.96,7.498,12.028,10.618,18.033L367.921,279.895z" fill="#444444"/></g></g></svg>