<?xml version="1.0" ?><!DOCTYPE svg  PUBLIC '-//W3C//DTD SVG 1.1//EN'  'http://www.w3.org/Graphics/SVG/1.1/DTD/svg11.dtd'><svg enable-background="new 0 0 56.693 56.693" height="56.693px" id="Layer_1" version="1.1" viewBox="0 0 56.693 56.693" width="56.693px" xml:space="preserve" xmlns="http://www.w3.org/2000/svg" xmlns:xlink="http://www.w3.org/1999/xlink"><path d="M47.64,18.654H35.94c2.405-1.617,4.682-3.723,4.95-6.018c0.132-1.119-0.124-2.76-2.097-4.221  c-1.095-0.811-2.205-1.221-3.298-1.221c-3.482,0-5.452,4.002-6.517,7.578c-1.272-4.559-3.729-10.421-7.947-10.421  c-1.23,0-2.457,0.499-3.647,1.485c-2.35,1.949-2.581,3.974-2.36,5.328c0.491,3.031,3.744,5.637,6.878,7.488H8.972  c-0.947,0-1.715,0.768-1.715,1.716v9.38c0,0.947,0.768,1.715,1.715,1.715h0.446v20.514c0,0.947,0.768,1.715,1.715,1.715h34.344  c0.948,0,1.717-0.768,1.717-1.715V31.465h0.446c0.947,0,1.716-0.768,1.716-1.715v-9.38C49.355,19.421,48.587,18.654,47.64,18.654z   M45.923,27.877H31.58v-5.792h14.343V27.877z M35.496,10.626c0.336,0,0.771,0.189,1.256,0.549c0.787,0.582,0.743,0.941,0.731,1.061  c-0.146,1.251-2.65,3.219-5.57,4.842C32.771,13.617,34.174,10.626,35.496,10.626z M18.411,10.615  c-0.045-0.281-0.166-1.031,1.165-2.136c0.384-0.317,0.948-0.696,1.456-0.696c1.889,0,3.831,4.648,4.963,9.168  C22.429,15.169,18.74,12.642,18.411,10.615z M25.218,22.085v5.792h-14.53v-5.792H25.218z M12.85,29.936h12.368v20.326H12.85V29.936z   M31.58,50.262V29.936h12.181v20.326H31.58z" fill="#474A56"/></svg>