<?xml version="1.0" ?><svg height="32" id="svg2" overflow="visible" style="fill-rule:evenodd;stroke-width:0.50099999;stroke-linejoin:bevel;overflow:visible" version="1.1" viewBox="0 0 25.600005 25.600001" width="32" xmlns="http://www.w3.org/2000/svg" xmlns:cc="http://creativecommons.org/ns#" xmlns:dc="http://purl.org/dc/elements/1.1/" xmlns:inkscape="http://www.inkscape.org/namespaces/inkscape" xmlns:rdf="http://www.w3.org/1999/02/22-rdf-syntax-ns#" xmlns:sodipodi="http://sodipodi.sourceforge.net/DTD/sodipodi-0.dtd" xmlns:svg="http://www.w3.org/2000/svg" xmlns:xlink="http://www.w3.org/1999/xlink"><script id="script3301" xlink:href=""/><script id="script3299" xlink:href=""/><defs id="defs4"><marker id="DefaultArrow2" markerHeight="1" markerUnits="strokeWidth" markerWidth="1" orient="auto" overflow="visible" style="overflow:visible" viewBox="0 0 1 1"><g id="g7" transform="scale(0.00925926,0.00925926)"><path d="M -9,54 -9,-54 117,0 z" id="path9"/></g></marker><marker id="DefaultArrow3" markerHeight="1" markerUnits="strokeWidth" markerWidth="1" orient="auto" overflow="visible" style="overflow:visible" viewBox="0 0 1 1"><g id="g12" transform="scale(0.00925926,0.00925926)"><path d="M -27,54 -9,0 -27,-54 135,0 z" id="path14"/></g></marker><marker id="DefaultArrow4" markerHeight="1" markerUnits="strokeWidth" markerWidth="1" orient="auto" overflow="visible" style="overflow:visible" viewBox="0 0 1 1"><g id="g17" transform="scale(0.00925926,0.00925926)"><path d="M -9,0 -9,-45 C -9,-51.708 2.808,-56.58 9,-54 L 117,-9 C 120.916,-7.369 126,-4.242 126,0 126,4.242 120.916,7.369 117,9 L 9,54 C 2.808,56.58 -9,51.708 -9,45 z" id="path19"/></g></marker><marker id="DefaultArrow5" markerHeight="1" markerUnits="strokeWidth" markerWidth="1" orient="auto" overflow="visible" style="overflow:visible" viewBox="0 0 1 1"><g id="g22" transform="scale(0.00925926,0.00925926)"><path d="M -54,0 C -54,29.807 -29.807,54 0,54 29.807,54 54,29.807 54,0 54,-29.807 29.807,-54 0,-54 -29.807,-54 -54,-29.807 -54,0 z" id="path24"/></g></marker><marker id="DefaultArrow6" markerHeight="1" markerUnits="strokeWidth" markerWidth="1" orient="auto" overflow="visible" style="overflow:visible" viewBox="0 0 1 1"><g id="g27" transform="scale(0.00925926,0.00925926)"><path d="M -63,0 0,63 63,0 0,-63 z" id="path29"/></g></marker><marker id="DefaultArrow7" markerHeight="1" markerUnits="strokeWidth" markerWidth="1" orient="auto" overflow="visible" style="overflow:visible" viewBox="0 0 1 1"><g id="g32" transform="scale(0.00925926,0.00925926)"><path d="M 18,-54 108,-54 63,0 108,54 18,54 -36,0 z" id="path34"/></g></marker><marker id="DefaultArrow8" markerHeight="1" markerUnits="strokeWidth" markerWidth="1" orient="auto" overflow="visible" style="overflow:visible" viewBox="0 0 1 1"><g id="g37" transform="scale(0.00925926,0.00925926)"><path d="M -36,0 18,-54 54,-54 18,-18 27,-18 63,-54 99,-54 63,-18 72,-18 108,-54 144,-54 90,0 144,54 108,54 72,18 63,18 99,54 63,54 27,18 18,18 54,54 18,54 z" id="path39"/></g></marker><marker id="DefaultArrow9" markerHeight="1" markerUnits="strokeWidth" markerWidth="1" orient="auto" overflow="visible" style="overflow:visible" viewBox="0 0 1 1"><g id="g42" transform="scale(0.00925926,0.00925926)"><path d="M 0,45 -45,0 0,-45 45,0 z M 0,63 -63,0 0,-63 63,0 z" id="path44"/></g></marker><filter color-interpolation-filters="sRGB" id="StainedFilter"><feBlend id="feBlend47" in="SourceGraphic" in2="BackgroundImage" mode="multiply" result="blend"/><feComposite id="feComposite49" in="blend" in2="SourceAlpha" operator="in" result="comp"/></filter><filter color-interpolation-filters="sRGB" id="BleachFilter"><feBlend id="feBlend52" in="SourceGraphic" in2="BackgroundImage" mode="screen" result="blend"/><feComposite id="feComposite54" in="blend" in2="SourceAlpha" operator="in" result="comp"/></filter><filter color-interpolation-filters="sRGB" id="InvertTransparencyBitmapFilter"><feComponentTransfer id="feComponentTransfer57"><feFuncR amplitude="1.055" exponent=".416666666" id="feFuncR59" offset="-0.055" type="gamma"/><feFuncG amplitude="1.055" exponent=".416666666" id="feFuncG61" offset="-0.055" type="gamma"/><feFuncB amplitude="1.055" exponent=".416666666" id="feFuncB63" offset="-0.055" type="gamma"/></feComponentTransfer><feComponentTransfer id="feComponentTransfer65"><feFuncR id="feFuncR67" intercept="1" slope="-1" type="linear"/><feFuncG id="feFuncG69" intercept="1" slope="-1" type="linear"/><feFuncB id="feFuncB71" intercept="1" slope="-1" type="linear"/><feFuncA id="feFuncA73" intercept="0" slope="1" type="linear"/></feComponentTransfer><feComponentTransfer id="feComponentTransfer75"><feFuncR amplitude="1" exponent="2.4" id="feFuncR77" offset="0" type="gamma"/><feFuncG amplitude="1" exponent="2.4" id="feFuncG79" offset="0" type="gamma"/><feFuncB amplitude="1" exponent="2.4" id="feFuncB81" offset="0" type="gamma"/></feComponentTransfer></filter><radialGradient cx="0" cy="0" gradientTransform="matrix(0,-1,0.886054,0,172.174,122.358)" gradientUnits="userSpaceOnUse" id="RadialGradient" r="237.42799"><stop id="stop84" offset="0" stop-color="#473600"/><stop id="stop86" offset="0.792135000228882" stop-color="#3d2f00"/><stop id="stop88" offset="0.990000009536743" stop-color="#3a2c00"/><stop id="stop90" offset="1" stop-color="#3a2c00"/></radialGradient><radialGradient cx="0" cy="0" gradientTransform="matrix(0,-1,0.886054,0,170.916,119.88)" gradientUnits="userSpaceOnUse" id="RadialGradient_1" r="237.42799"><stop id="stop93" offset="0" stop-color="#553e00"/><stop id="stop95" offset="0.792135000228882" stop-color="#403200"/><stop id="stop97" offset="0.990000009536743" stop-color="#3b2b00"/><stop id="stop99" offset="1" stop-color="#3b2b00"/></radialGradient><radialGradient cx="0" cy="0" gradientTransform="matrix(0,-1,0.886054,0,169.66,117.403)" gradientUnits="userSpaceOnUse" id="RadialGradient_2" r="237.42799"><stop id="stop102" offset="0" stop-color="#634700"/><stop id="stop104" offset="0.792135000228882" stop-color="#443400"/><stop id="stop106" offset="0.990000009536743" stop-color="#3c2a00"/><stop id="stop108" offset="1" stop-color="#3c2a00"/></radialGradient><radialGradient cx="0" cy="0" gradientTransform="matrix(0,-1,0.886054,0,168.403,114.925)" gradientUnits="userSpaceOnUse" id="RadialGradient_3" r="237.42799"><stop id="stop111" offset="0" stop-color="#724f00"/><stop id="stop113" offset="0.792135000228882" stop-color="#473600"/><stop id="stop115" offset="0.990000009536743" stop-color="#3c2900"/><stop id="stop117" offset="1" stop-color="#3c2900"/></radialGradient><radialGradient cx="0" cy="0" gradientTransform="matrix(0,-1,0.886054,0,167.146,112.448)" gradientUnits="userSpaceOnUse" id="RadialGradient_4" r="237.42799"><stop id="stop120" offset="0" stop-color="#805800"/><stop id="stop122" offset="0.792135000228882" stop-color="#4b3800"/><stop id="stop124" offset="0.990000009536743" stop-color="#3d2800"/><stop id="stop126" offset="1" stop-color="#3d2800"/></radialGradient><radialGradient cx="0" cy="0" gradientTransform="matrix(0,-1,0.886054,0,165.889,109.97)" gradientUnits="userSpaceOnUse" id="RadialGradient_5" r="237.42799"><stop id="stop129" offset="0" stop-color="#8e6000"/><stop id="stop131" offset="0.792135000228882" stop-color="#4e3b00"/><stop id="stop133" offset="0.990000009536743" stop-color="#3e2700"/><stop id="stop135" offset="1" stop-color="#3e2700"/></radialGradient><radialGradient cx="0" cy="0" gradientTransform="matrix(0,-1,0.886054,0,164.632,107.493)" gradientUnits="userSpaceOnUse" id="RadialGradient_6" r="237.42799"><stop id="stop138" offset="0" stop-color="#9c6900"/><stop id="stop140" offset="0.792135000228882" stop-color="#523d00"/><stop id="stop142" offset="0.990000009536743" stop-color="#3f2600"/><stop id="stop144" offset="1" stop-color="#3f2600"/></radialGradient><linearGradient gradientTransform="translate(218.601,165.399)" gradientUnits="userSpaceOnUse" id="LinearGradient" x1="0" x2="42.75" y1="0" y2="36.75"><stop id="stop147" offset="0" stop-color="#5c5c5c"/><stop id="stop149" offset="1" stop-color="#000000"/></linearGradient><linearGradient gradientTransform="translate(181.122,157.792)" gradientUnits="userSpaceOnUse" id="LinearGradient_1" x1="0" x2="-9.6719999" y1="0" y2="-141.858"><stop id="stop152" offset="0" stop-color="#ffffff"/><stop id="stop154" offset="1" stop-color="#cfd1d2"/></linearGradient><linearGradient gradientTransform="translate(259.851,172.899)" gradientUnits="userSpaceOnUse" id="LinearGradient_2" x1="0" x2="69.75" y1="0" y2="-189.75"><stop id="stop157" offset="0" stop-color="#b5b5b5"/><stop id="stop159" offset="1" stop-color="#000000"/></linearGradient><linearGradient gradientTransform="translate(204.11,87.059)" gradientUnits="userSpaceOnUse" id="LinearGradient_3" x1="0" x2="-51.527" y1="0" y2="-64.410004"><stop id="stop162" offset="0" stop-color="#df9000"/><stop id="stop164" offset="0.730337023735046" stop-color="#7f5200"/><stop id="stop166" offset="0.990000009536743" stop-color="#3f2600"/><stop id="stop168" offset="1" stop-color="#3f2600"/></linearGradient><linearGradient gradientTransform="translate(199.945,96.333)" gradientUnits="userSpaceOnUse" id="LinearGradient_4" x1="0" x2="19.041" y1="0" y2="85.190002"><stop id="stop171" offset="0" stop-color="#ba7d00"/><stop id="stop173" offset="0.792135000228882" stop-color="#7f5200"/><stop id="stop175" offset="0.990000009536743" stop-color="#3f2600"/><stop id="stop177" offset="1" stop-color="#3f2600"/></linearGradient><linearGradient gradientTransform="translate(129.134,111.014)" gradientUnits="userSpaceOnUse" id="LinearGradient_5" x1="0" x2="-1.007" y1="0" y2="-63.535999"><stop id="stop180" offset="0" stop-color="#df9000"/><stop id="stop182" offset="0.792135000228882" stop-color="#7f5200"/><stop id="stop184" offset="0.990000009536743" stop-color="#3f2600"/><stop id="stop186" offset="1" stop-color="#3f2600"/></linearGradient><linearGradient gradientTransform="translate(129.286,104.867)" gradientUnits="userSpaceOnUse" id="LinearGradient_6" x1="0" x2="15.098" y1="0" y2="58.375"><stop id="stop189" offset="0" stop-color="#df9000"/><stop id="stop191" offset="0.792135000228882" stop-color="#7f5200"/><stop id="stop193" offset="0.990000009536743" stop-color="#3f2600"/><stop id="stop195" offset="1" stop-color="#3f2600"/></linearGradient><radialGradient cx="0" cy="0" gradientTransform="matrix(0.69735527,-0.71672563,1.2319152,1.1986212,183.351,196.899)" gradientUnits="userSpaceOnUse" id="RadialGradient_7" r="38.716999"><stop id="stop198" offset="0" stop-color="#6b4c29"/><stop id="stop200" offset="1" stop-color="#a57348"/></radialGradient><radialGradient cx="0" cy="0" gradientTransform="matrix(0,-1,0.973942,0,134.346,314.993)" gradientUnits="userSpaceOnUse" id="RadialGradient_8" r="120.999"><stop id="stop203" offset="0" stop-color="#e0bf9e"/><stop id="stop205" offset="1.68539006263018E-02" stop-color="#e0bf9e"/><stop id="stop207" offset="0.202246993780136" stop-color="#e6b891"/><stop id="stop209" offset="1" stop-color="#7b5d39"/></radialGradient><radialGradient cx="0" cy="0" gradientTransform="matrix(-0.01429027,-0.99989789,1.2061368,-0.01723778,146.601,370.899)" gradientUnits="userSpaceOnUse" id="RadialGradient_9" r="87.054001"><stop id="stop212" offset="0" stop-color="#9a9a9a"/><stop id="stop214" offset="1" stop-color="#313131"/></radialGradient><linearGradient gradientTransform="translate(213.351,257.649)" gradientUnits="userSpaceOnUse" id="LinearGradient_7" x1="0" x2="-54" y1="0" y2="-87"><stop id="stop217" offset="0" stop-color="#484848"/><stop id="stop219" offset="1" stop-color="#000000"/></linearGradient><linearGradient gradientTransform="translate(133.101,343.149)" gradientUnits="userSpaceOnUse" id="LinearGradient_8" x1="0" x2="10.5" y1="0" y2="-85.5"><stop id="stop222" offset="0" stop-color="#8d8d8d"/><stop id="stop224" offset="1" stop-color="#000000"/></linearGradient><linearGradient gradientTransform="translate(239.24,380.259)" gradientUnits="userSpaceOnUse" id="LinearGradient_9" x1="0" x2="3.5999999" y1="0" y2="-129"><stop id="stop227" offset="0" stop-color="#ffffff"/><stop id="stop229" offset="1" stop-color="#000000"/></linearGradient><linearGradient gradientTransform="translate(115.007,352.336)" gradientUnits="userSpaceOnUse" id="LinearGradient_10" x1="0" x2="108" y1="0" y2="-33.75"><stop id="stop232" offset="0" stop-color="#ffffff"/><stop id="stop234" offset="1" stop-color="#000000"/></linearGradient><linearGradient gradientTransform="translate(226.61,87.059)" gradientUnits="userSpaceOnUse" id="LinearGradient_11" x1="0" x2="-51.527" y1="0" y2="-64.410004"><stop id="stop237" offset="0" stop-color="#df9000"/><stop id="stop239" offset="0.730337023735046" stop-color="#7f5200"/><stop id="stop241" offset="0.990000009536743" stop-color="#3f2600"/><stop id="stop243" offset="1" stop-color="#3f2600"/></linearGradient></defs><g id="g4600" transform="matrix(0.64050449,0,0,0.64032669,0,25.600003)"><path d="M 0.59453147,-6.869951 C 1.4288739,-7.5396213 3.4406219,-8.1992965 5.2691809,-8.5108098 6.3749761,-8.7240382 7.2576138,-10.208307 7.6123343,-11.441034 L 8.781413,-11.441034 8.781413,-11.439368 9.9554877,-11.439368 9.9554877,-11.441034 11.122901,-11.441034 C 11.479287,-10.208307 12.360259,-8.7240382 13.466054,-8.5108098 13.747499,-8.4625003 14.035606,-8.4058615 14.322047,-8.3408935 13.77248,-7.6312428 13.181279,-7.1781326 12.670015,-7.0848452 10.233602,-6.6817103 7.4591217,-5.9220843 5.5273108,-4.9975395 L 0,-4.9975395 C 0,-6.1686296 0.04496456,-6.4601528 0.59453147,-6.869951 z" id="path4602" style="fill:#333333;fill-opacity:1;fill-rule:evenodd;stroke:none"/><path d="M 4.8944761,-14.432894 C 4.5780588,-14.682771 4.2932833,-15.182525 4.1667163,-15.755576 3.981862,-16.58017 4.1966927,-17.246509 4.644673,-17.246509 4.6513344,-17.246509 4.6596612,-17.246509 4.7012951,-17.243177 4.6979643,-17.243177 4.7262754,-17.239845 4.7595825,-17.233182 4.6030392,-18.309319 4.5014525,-19.34381 4.6896376,-20.353313 4.7162832,-20.533224 4.7662439,-20.728128 4.8395195,-20.9197 5.199236,-22.209066 6.7496808,-23.738313 9.369283,-23.738313 9.7423224,-23.738313 10.093712,-23.706662 10.423452,-23.648357 10.423452,-23.423468 10.430114,-23.200244 10.440106,-22.977021 L 10.614968,-21.317838 10.488401,-21.251204 C 9.4958499,-20.481583 9.4642082,-18.792414 9.7289995,-17.656307 9.8605625,-17.088253 10.078724,-16.521866 10.368496,-16.017114 L 11.099586,-15.154206 12.048838,-13.22349 C 12.238688,-12.875328 12.438531,-12.538827 12.643369,-12.215652 11.75407,-10.971265 10.691574,-10.268278 9.369283,-10.268278 7.3925075,-10.268278 5.9969407,-11.839171 4.8944761,-14.432894 z" id="path4604" style="fill:#333333;fill-opacity:1;fill-rule:evenodd;stroke:none"/><path d="M 27.296822,-7.0848452 C 26.778896,-7.1781326 26.18603,-7.629577 25.638129,-8.3392276 25.9279,-8.4025298 26.216007,-8.4608344 26.502448,-8.509144 27.608243,-8.7240382 28.489215,-10.206642 28.843936,-11.439368 L 32.357833,-11.439368 C 32.712554,-10.206642 33.595191,-8.7240382 34.699321,-8.509144 36.529546,-8.1992965 38.539628,-7.5396213 39.375636,-6.869951 39.923537,-6.4584869 39.968502,-6.1686296 39.968502,-4.9975395 L 34.439526,-4.9975395 C 32.50605,-5.9220843 29.731569,-6.6817103 27.296822,-7.0848452 z" id="path4606" style="fill:#333333;fill-opacity:1;fill-rule:evenodd;stroke:none"/><path d="M 27.323467,-12.218984 C 27.528306,-12.540493 27.726483,-12.875328 27.917999,-13.221824 L 28.868916,-15.155872 29.598341,-16.015448 C 29.889778,-16.5202 30.10794,-17.086588 30.241168,-17.656307 30.48431,-18.710788 30.502628,-20.441602 29.503416,-21.237877 L 29.350203,-21.319504 29.526731,-22.977021 C 29.535058,-23.200244 29.540054,-23.423468 29.540054,-23.648357 29.871459,-23.706662 30.22618,-23.738313 30.60255,-23.738313 33.220487,-23.738313 34.769266,-22.209066 35.130648,-20.921366 35.202258,-20.726462 35.252219,-20.533224 35.28053,-20.351647 35.46705,-19.34381 35.365463,-18.309319 35.210585,-17.233182 35.243892,-17.239845 35.278864,-17.244843 35.267207,-17.243177 35.315502,-17.244843 35.318833,-17.246509 35.323829,-17.244843 35.773475,-17.246509 35.988305,-16.578504 35.805116,-15.755576 35.676884,-15.180859 35.390443,-14.681105 35.075691,-14.431228 33.974892,-11.839171 32.57766,-10.268278 30.60255,-10.268278 29.276928,-10.268278 28.212766,-10.972931 27.323467,-12.218984 z" id="path4608" style="fill:#333333;fill-opacity:1;fill-rule:evenodd;stroke:none"/><path d="M 4.776236,-3.1217964 C 6.2250942,-4.2362477 9.7090153,-5.3340405 12.881515,-5.8554505 14.795007,-6.2086099 16.322137,-8.6807261 16.939983,-10.736381 L 18.97005,-10.736381 18.97005,-10.734715 20.998452,-10.734715 20.998452,-10.736381 23.028519,-10.736381 C 23.646365,-8.6807261 25.17183,-6.2086099 27.086987,-5.8554505 30.259487,-5.3340405 33.743408,-4.2362477 35.193931,-3.1217964 36.141518,-2.4387993 36.221455,-1.954038 36.221455,0 L 3.7470471,0 C 3.7470471,-1.954038 3.8253187,-2.4387993 4.776236,-3.1217964 z" id="path4610" style="fill:#333333;fill-opacity:1;fill-rule:evenodd;stroke:none"/><path d="M 12.232027,-15.725591 C 11.684125,-16.142053 11.191181,-16.974976 10.968023,-17.931172 10.648275,-19.300498 11.021314,-20.416615 11.799035,-20.413283 11.812358,-20.416615 11.825681,-20.413283 11.89396,-20.408286 11.888964,-20.408286 11.942255,-20.404954 11.992216,-20.393293 11.727425,-22.185744 11.549232,-23.908229 11.875641,-25.589068 11.922271,-25.892252 12.00887,-26.213761 12.135436,-26.540267 12.756614,-28.684211 15.444495,-31.234622 19.985916,-31.234622 24.522341,-31.234622 27.211888,-28.684211 27.834731,-26.540267 27.957967,-26.213761 28.044566,-25.892252 28.094526,-25.589068 28.41927,-23.908229 28.242743,-22.185744 27.974621,-20.393293 28.034573,-20.404954 28.092861,-20.413283 28.072877,-20.408286 28.156144,-20.413283 28.164471,-20.416615 28.169467,-20.413283 28.948853,-20.416615 29.323558,-19.300498 29.00381,-17.931172 28.780652,-16.974976 28.286042,-16.142053 27.73814,-15.725591 25.83131,-11.401053 23.408219,-8.7856745 19.985916,-8.7856745 16.561948,-8.7856745 14.140523,-11.401053 12.232027,-15.725591 z" id="path4612" style="fill:#333333;fill-opacity:1;fill-rule:evenodd;stroke:none"/><path d="M 26.229329,-35.540835 C 26.229329,-36.648623 26.514105,-38.87586 29.188664,-39.835388 31.110483,-40.415102 33.100581,-39.150725 33.100581,-37.759743 33.100581,-39.150725 35.085683,-40.415102 37.009168,-39.835388 39.683726,-38.87586 39.968502,-36.648623 39.968502,-35.540835 39.968502,-31.096357 34.536116,-32.760537 33.100581,-27.484802 31.66338,-32.760537 26.229329,-31.096357 26.229329,-35.540835 z" id="path4614" style="fill:#333333;fill-opacity:1;fill-rule:evenodd;stroke:none"/></g></svg>