<?xml version="1.0" ?><svg enable-background="new 0 0 515.91 728.5" height="512" id="Layer_1" version="1.1" viewBox="0 0 512.00003 512" width="512" xml:space="preserve" xmlns="http://www.w3.org/2000/svg" xmlns:cc="http://creativecommons.org/ns#" xmlns:dc="http://purl.org/dc/elements/1.1/" xmlns:inkscape="http://www.inkscape.org/namespaces/inkscape" xmlns:rdf="http://www.w3.org/1999/02/22-rdf-syntax-ns#" xmlns:sodipodi="http://sodipodi.sourceforge.net/DTD/sodipodi-0.dtd" xmlns:svg="http://www.w3.org/2000/svg"><defs id="defs7"/><g id="g11376" transform="matrix(0.97656219,0,0,0.97656219,565.35905,-5658.8589)"><g id="g11363" style="fill:#00a1f1;fill-opacity:1" transform="matrix(0.60365042,0,0,0.60365042,-3464.9809,5275.8794)"><path d="m 5400.2485,932.68517 c -37.8731,-0.28913 -77.3324,10.22869 -100.7474,33.6276 -19.0244,19.10892 -28.5326,43.62693 -28.5326,73.50543 0,22.9335 4.8717,41.7239 14.606,56.3178 9.734,14.6016 22.3996,25.7931 38.0435,33.6957 15.6363,7.903 35.1379,15.1117 58.4239,21.5354 l 33.0842,9.6468 c 18.0665,5.7334 31.7352,12.7439 41.0326,20.9917 9.2974,8.2552 13.9267,19.9391 13.9267,35.0543 0,14.0803 -4.7835,26.3633 -14.3343,36.9566 -9.5581,10.6006 -23.0798,17.6482 -40.625,21.1278 -17.7866,2.7669 -33.8746,-2.1863 -33.8746,-2.1863 -11.6361,-3.2963 -20.2302,-8.4678 -27.2667,-14.7294 -7.0366,-6.255 -12.2885,-13.1695 -15.7609,-20.7202 -3.4796,-7.5576 -7.5374,-18.4956 -12.2283,-32.7445 -2.0778,-6.5927 -5.8208,-11.7048 -11.2093,-15.3533 -5.3883,-3.6557 -12.0183,-5.5028 -19.837,-5.5028 -9.7339,0 -17.8052,3.3632 -24.3204,10.0543 -6.5157,6.6915 -9.7826,14.215 -9.7826,22.5544 0,11.298 2.4089,22.7837 7.2689,34.5108 4.86,11.7348 12.3907,23.0457 22.5543,33.8996 10.1709,10.8611 22.8366,19.9448 38.0435,27.2417 43.012,20.2063 105.5852,19.4463 150.7472,-5.7065 18.0667,-10.9454 31.8033,-25.0993 41.1006,-42.3913 9.2974,-17.2846 13.9268,-35.8252 13.9268,-55.6385 0,-15.8126 -2.9459,-30.323 -8.7637,-43.6141 -5.825,-13.2911 -14.0946,-24.7491 -24.8641,-34.307 -10.0792,-9.206 -21.5303,-16.2678 -34.307,-21.1278 -12.7702,-4.8669 -29.8878,-10.2519 -51.4267,-16.1685 l -33.0842,-9.5789 c -15.6367,-5.7332 -27.276,-12.1819 -34.9187,-19.2254 -7.6419,-7.0365 -11.4808,-17.3863 -11.4808,-31.1141 0,-14.4181 4.0578,-25.2089 12.2282,-32.337 8.1705,-7.12086 21.9485,-16.00368 34.1713,-17.18738 0,0 14.9024,-2.93369 33.0842,1.01891 21.8911,7.12805 35.7067,21.55917 41.4402,43.27457 5.0361,18.4115 16.0528,27.6493 33.0843,27.6493 9.0368,0 16.6837,-3.1647 23.0298,-9.5108 6.3461,-6.3322 9.5789,-13.8698 9.5789,-22.5544 0,-7.8182 -2.1995,-16.4263 -6.4539,-25.81519 -4.2543,-9.38195 -10.2524,-18.44913 -18.0706,-27.30978 -9.9031,-11.63587 -21.4916,-20.34652 -34.7826,-26.08696 -17.8014,-7.4926 -39.9803,-11.57934 -62.7037,-11.7526 z" id="path11365" style="fill:#00a1f1;fill-opacity:1"/><rect height="500" id="rect11367" rx="16" ry="16" style="fill:#00a1f1;fill-opacity:1;fill-rule:nonzero;stroke:none" width="32" x="5381.667" y="879.54553"/></g><path d="m -562.5007,6081.7222 c -2.69232,0 -5.34244,1.1331 -7.243,3.0403 -1.90071,1.9071 -3.04285,4.5496 -3.04027,7.2423 l 0,152.6846 c 0,2.6912 1.13956,5.3795 3.04027,7.2881 1.90056,1.9057 4.55068,3.0331 7.243,3.0402 l 38.13747,0 c 2.69776,0 5.38021,-1.1345 7.28779,-3.0402 1.90757,-1.9086 3.0427,-4.5912 3.04027,-7.2881 l 0,-152.6846 c 0,-2.6969 -1.1327,-5.3795 -3.04027,-7.2867 -1.90758,-1.9086 -4.59003,-2.9988 -7.28779,-2.9959 l -38.13747,0 z" id="path5399" style="font-size:medium;font-style:normal;font-variant:normal;font-weight:normal;font-stretch:normal;text-indent:0;text-align:start;text-decoration:none;line-height:normal;letter-spacing:normal;word-spacing:normal;text-transform:none;direction:ltr;block-progression:tb;writing-mode:lr-tb;text-anchor:start;baseline-shift:baseline;color:#000000;fill:#00a1f1;fill-opacity:1;stroke:none;stroke-width:19.54213333;marker:none;visibility:visible;display:inline;overflow:visible;enable-background:accumulate;font-family:Sans;-inkscape-font-specification:Sans"/><path d="m -397.25293,6090.9317 c -47.58964,0.5537 -94.87439,15.9625 -94.87439,15.9625 -4.11761,1.3234 -7.15774,5.5111 -7.15359,9.8348 l 0,102.2075 c 0.19959,6.9447 4.68889,11.5316 10.73038,12.1167 3.25259,0.279 8.33092,0.9786 18.50989,2.3693 0.4368,0.057 4.61922,1.1889 9.74676,3.2191 5.12755,2.0302 11.65719,4.8902 19.04642,8.271 14.77815,6.7616 32.99218,15.6821 51.41637,24.5454 18.4242,8.8647 37.03425,17.665 52.7129,24.5024 15.67879,6.836 26.92494,11.875 37.10935,12.6518 15.46333,1.2004 41.86778,-3.076 68.94251,-7.3767 27.07489,-4.3008 54.63421,-8.9506 61.96806,-9.2997 21.75347,-1.0258 39.66633,-17.3546 51.46102,-24.9932 15.3151,-9.9506 32.954264,-20.6009 47.526542,-34.4717 l 0.04435,0 c 5.279201,-5.0146 9.276766,-11.5129 9.1656,-20.0743 -0.956864,-7.0578 -7.28478,-5.2565 -8.897341,-8.1823 2.12719,-2.2935 8.439368,-8.1379 8.897341,-12.5631 1.513698,-13.1426 -11.933608,-19.7239 -22.846828,-20.6109 -20.209874,-1.0044 -38.575554,11.1853 -48.733784,20.8355 -15.64317,14.9195 -32.45051,19.9528 -55.61911,22.6225 -27.74102,3.2162 -53.737,5.3895 -78.55535,-2.4594 -3.69497,-1.1689 -12.18699,-4.8859 -19.98525,-8.1823 -3.89913,-1.6453 -7.75162,-3.1905 -11.13284,-4.4252 -2.5358,-0.9271 -4.15279,-1.8499 -7.01938,-2.2362 8.45182,-1.0916 22.20658,-3.0646 34.91836,-1.5652 15.36961,1.8141 63.02778,1.9086 82.71344,5.4997 7.52543,1.3706 14.95357,-0.3921 20.52177,-3.9789 5.56807,-3.5882 9.39881,-8.6601 12.02704,-13.9938 5.25616,-10.6717 7.41626,-16.4962 -0.17884,-26.9604 -6.89763,-9.4957 -17.50396,-12.6676 -29.28506,-16.0069 -11.78109,-3.3364 -25.08475,-5.6399 -36.88559,-7.5112 -24.40917,-3.8759 -42.63707,-3.0103 -60.62661,-6.4383 -6.48716,-1.2332 -17.76478,-7.7344 -33.26416,-15.0668 -15.49953,-7.3325 -35.63043,-15.0297 -62.10212,-17.482 -6.674,-0.6166 -13.49967,-0.8384 -20.29829,-0.7597 z" id="rect3-5-7-7" style="font-size:medium;font-style:normal;font-variant:normal;font-weight:normal;font-stretch:normal;text-indent:0;text-align:start;text-decoration:none;line-height:normal;letter-spacing:normal;word-spacing:normal;text-transform:none;direction:ltr;block-progression:tb;writing-mode:lr-tb;text-anchor:start;baseline-shift:baseline;color:#000000;fill:#333333;fill-opacity:1;stroke:none;stroke-width:19.54213333;marker:none;visibility:visible;display:inline;overflow:visible;enable-background:accumulate;font-family:Sans;-inkscape-font-specification:Sans"/></g></svg>