<?xml version="1.0" ?><svg enable-background="new 0 0 515.91 728.5" height="512" id="Layer_1" version="1.1" viewBox="0 0 512.00003 512" width="512" xml:space="preserve" xmlns="http://www.w3.org/2000/svg" xmlns:cc="http://creativecommons.org/ns#" xmlns:dc="http://purl.org/dc/elements/1.1/" xmlns:inkscape="http://www.inkscape.org/namespaces/inkscape" xmlns:rdf="http://www.w3.org/1999/02/22-rdf-syntax-ns#" xmlns:sodipodi="http://sodipodi.sourceforge.net/DTD/sodipodi-0.dtd" xmlns:svg="http://www.w3.org/2000/svg"><defs id="defs7"/><g id="g11926" transform="matrix(0.99994721,0,0,0.99994721,3130.0303,-5777.136)"><path d="m -2633.0655,5920.2745 c 4.6541,4e-4 8.8884,4.2348 8.8889,8.8889 l 0,345.4154 c -5e-4,4.6541 -4.2348,8.8884 -8.8889,8.8889 l -82.2223,0 c -4.6542,-5e-4 -8.8885,-4.2348 -8.8889,-8.8889 l 0,-345.4154 c 4e-4,-4.6541 4.2347,-8.8885 8.8889,-8.8889 z" id="path5361-7" style="font-size:medium;font-style:normal;font-variant:normal;font-weight:normal;font-stretch:normal;text-indent:0;text-align:start;text-decoration:none;line-height:normal;letter-spacing:normal;word-spacing:normal;text-transform:none;direction:ltr;block-progression:tb;writing-mode:lr-tb;text-anchor:start;baseline-shift:baseline;color:#000000;fill:#333333;fill-opacity:1;fill-rule:nonzero;stroke:none;stroke-width:16;marker:none;visibility:visible;display:inline;overflow:visible;enable-background:accumulate;font-family:Sans;-inkscape-font-specification:Sans"/><path d="m -2899.7325,6117.8635 c 4.6541,5e-4 8.8885,4.2348 8.8889,8.8889 l 0,147.8264 c -4e-4,4.6541 -4.2348,8.8884 -8.8889,8.8889 l -82.2223,0 c -4.6541,-5e-4 -8.8884,-4.2348 -8.8889,-8.8889 l 0,-147.8264 c 5e-4,-4.6541 4.2348,-8.8884 8.8889,-8.8889 z" id="path5363-2" style="font-size:medium;font-style:normal;font-variant:normal;font-weight:normal;font-stretch:normal;text-indent:0;text-align:start;text-decoration:none;line-height:normal;letter-spacing:normal;word-spacing:normal;text-transform:none;direction:ltr;block-progression:tb;writing-mode:lr-tb;text-anchor:start;baseline-shift:baseline;color:#000000;fill:#333333;fill-opacity:1;fill-rule:nonzero;stroke:none;stroke-width:16;marker:none;visibility:visible;display:inline;overflow:visible;enable-background:accumulate;font-family:Sans;-inkscape-font-specification:Sans"/><path d="m -3033.0659,6157.6125 c 4.6541,5e-4 8.8884,4.2349 8.8889,8.8889 l 0,108.0774 c -5e-4,4.6541 -4.2348,8.8884 -8.8889,8.8889 l -82.2223,0 c -4.6542,-5e-4 -8.8885,-4.2348 -8.8889,-8.8889 l 0,-108.0774 c 4e-4,-4.654 4.2347,-8.8884 8.8889,-8.8889 z" id="path5365-2" style="font-size:medium;font-style:normal;font-variant:normal;font-weight:normal;font-stretch:normal;text-indent:0;text-align:start;text-decoration:none;line-height:normal;letter-spacing:normal;word-spacing:normal;text-transform:none;direction:ltr;block-progression:tb;writing-mode:lr-tb;text-anchor:start;baseline-shift:baseline;color:#000000;fill:#333333;fill-opacity:1;fill-rule:nonzero;stroke:none;stroke-width:16;marker:none;visibility:visible;display:inline;overflow:visible;enable-background:accumulate;font-family:Sans;-inkscape-font-specification:Sans"/><path d="m -2632.4432,5783.4453 c -0.7971,0.027 -1.5901,0.1748 -2.3438,0.4374 l -75.5312,26.375 c -2.6535,0.8994 -4.746,3.3027 -5.2825,6.0673 -0.5365,2.7647 0.5037,5.7831 2.6262,7.6203 l 23.5625,20.5 c -110.6821,130.638 -216.9832,201.5443 -295.9062,239.9062 -80.4158,39.0874 -131.6876,44.2812 -131.6876,44.2812 -2.0861,0.2169 -4.0701,1.2913 -5.3919,2.9197 -1.3218,1.6285 -1.9651,3.7911 -1.7483,5.8772 0.2168,2.0862 1.291,4.0702 2.9194,5.3921 1.6284,1.3219 3.7909,1.9653 5.8771,1.7486 0,0 54.6836,-5.7861 137.0313,-45.8126 80.7857,-39.2671 188.9141,-111.6025 300.9687,-243.8124 l 24.75,21.5312 c 2.1064,1.8375 5.2085,2.4379 7.8424,1.5179 2.6339,-0.9199 4.6987,-3.3251 5.2201,-6.0804 l 15.1875,-78.9375 c 0.4488,-2.3548 -0.2209,-4.9001 -1.769,-6.7231 -1.5481,-1.8231 -3.9425,-2.8862 -6.3247,-2.8081 z" id="path5367-8" style="font-size:medium;font-style:normal;font-variant:normal;font-weight:normal;font-stretch:normal;text-indent:0;text-align:start;text-decoration:none;line-height:normal;letter-spacing:normal;word-spacing:normal;text-transform:none;direction:ltr;block-progression:tb;writing-mode:lr-tb;text-anchor:start;baseline-shift:baseline;color:#000000;fill:#00a1f1;fill-opacity:0.98039216;stroke:none;stroke-width:16;marker:none;visibility:visible;display:inline;overflow:visible;enable-background:accumulate;font-family:Sans;-inkscape-font-specification:Sans"/><path d="m -2766.399,6036.3913 c 4.6541,5e-4 8.8885,4.2348 8.8889,8.8889 l 0,229.2986 c -4e-4,4.6541 -4.2348,8.8884 -8.8889,8.8889 l -82.2223,0 c -4.6541,-5e-4 -8.8884,-4.2348 -8.8889,-8.8889 l 0,-229.2986 c 5e-4,-4.6541 4.2348,-8.8884 8.8889,-8.8889 z" id="path5369-2" style="font-size:medium;font-style:normal;font-variant:normal;font-weight:normal;font-stretch:normal;text-indent:0;text-align:start;text-decoration:none;line-height:normal;letter-spacing:normal;word-spacing:normal;text-transform:none;direction:ltr;block-progression:tb;writing-mode:lr-tb;text-anchor:start;baseline-shift:baseline;color:#000000;fill:#333333;fill-opacity:1;fill-rule:nonzero;stroke:none;stroke-width:16;marker:none;visibility:visible;display:inline;overflow:visible;enable-background:accumulate;font-family:Sans;-inkscape-font-specification:Sans"/><path d="m -2773.3707,5785.8276 c -1.3106,-1.7298 -2.0222,-1.6482 -2.4459,-1.8014 -0.4237,-0.1533 -0.6591,-0.2097 -0.8587,-0.2502 -0.3995,-0.081 -0.6551,-0.1 -0.9197,-0.1268 -0.5293,-0.054 -1.0611,-0.079 -1.7278,-0.1064 -1.3336,-0.056 -3.1086,-0.086 -5.2726,-0.097 -4.3275,-0.022 -10.1708,0.038 -16.5907,0.2167 -11.8752,0.3314 -25.5463,1.0213 -35.2481,2.3596 l 45.8999,60.5788 c 3.9136,-8.9914 8.2516,-21.9842 11.7593,-33.3603 1.8962,-6.1501 3.5369,-11.7901 4.6768,-15.9748 0.5698,-2.0924 1.0163,-3.8175 1.3205,-5.1186 0.1521,-0.6507 0.2749,-1.1694 0.3651,-1.6921 0.045,-0.2613 0.081,-0.5036 0.1105,-0.9073 0.015,-0.2018 0.036,-0.4316 0,-0.878 -0.032,-0.4465 0.2484,-1.0989 -1.0725,-2.8421 z m -70.3012,1.8177 c -0.7378,-0.1681 -1.5121,-0.1742 -2.2525,-0.018 -58.7635,12.3018 -104.9539,51.1336 -141.424,91.2757 -4.8026,-0.059 -14.438,-0.6453 -23.5813,-1.3327 -10.1537,-0.7634 -19.1597,-1.5431 -19.1597,-1.5431 -1.3937,-0.1242 -2.8306,0.3373 -3.8914,1.25 l -53.7865,46.3384 c -2.0029,1.7253 -2.3531,5.055 -0.7526,7.159 l 8.7835,11.5926 c 1.409,1.8484 4.1271,2.5608 6.2607,1.6391 l 41.0478,-17.7695 4.0772,2.2899 c -1.9503,2.5267 -3.9384,5.0922 -5.8136,7.5448 -1.3718,1.8067 -1.3761,4.5281 -0.01,6.339 l 39.5818,52.24 c 1.3771,1.8175 4.0156,2.5542 6.1338,1.7095 2.8576,-1.1415 5.8496,-2.3675 8.8078,-3.5593 l 1.1013,4.5446 -28.2131,34.7087 c -1.4646,1.8048 -1.515,4.6148 -0.116,6.4708 l 8.7836,11.5925 c 1.591,2.1111 4.8927,2.6739 7.0956,1.2125 l 59.1631,-39.2424 c 1.1657,-0.7743 1.9987,-2.0327 2.2562,-3.4081 0,0 1.6873,-8.88 3.6986,-18.8625 1.8111,-8.9894 3.8547,-18.4282 5.0974,-23.0623 48.5079,-24.2526 98.395,-58.2015 126.1365,-111.4522 0.3509,-0.6705 0.5546,-1.4176 0.5924,-2.1734 l -49.6166,-65.4839 z m -13.6708,61.8843 c 7.3248,9.6672 5.4404,23.4425 -4.2267,30.7673 -9.6673,7.3247 -23.455,5.424 -30.7798,-4.2432 -7.3247,-9.6672 -5.4116,-23.4386 4.2557,-30.7633 9.6671,-7.3248 23.4261,-5.428 30.7508,4.2392 z" id="path11920" style="fill:#333333;fill-opacity:1"/><path d="m -3115.4498,6035.6298 c 4.0012,2.4951 9.776,0.662 18.0958,-3.9397 25.5806,-11.3043 17.8397,-32.6403 -2.216,-14.0442 2.7008,-14.798 1.0477,-18.3465 14.4087,-30.1802 5.1031,-4.5234 11.3745,-5.0714 15.514,-8.2238 16.3847,-12.4944 -5.1362,-10.3523 -10.2069,-4.8082 4.169,-21.641 27.9132,-25.1931 44.8309,-17.2746 12.8733,6.4712 22.0102,23.4705 23.1209,27.8157 6.3928,23.6108 -13.1996,44.5182 -21.1267,49.8397 -7.5147,4.8768 -23.6186,11.0943 -33.8734,10.3618 17.009,-4.8096 18.2357,-26.5658 4.0888,-17.9734 -9.3142,5.9479 -28.5764,32.1042 -52.6361,8.4268 z" id="path11922" style="font-size:16px;fill:#00a1f1;fill-opacity:0.98039216;stroke:none;stroke-width:0.294;marker-start:none;marker-end:none;font-family:Times New Roman"/></g></svg>