<?xml version="1.0" ?><svg enable-background="new 0 0 515.91 728.5" height="512" id="Layer_1" version="1.1" viewBox="0 0 512.00003 512" width="512" xml:space="preserve" xmlns="http://www.w3.org/2000/svg" xmlns:cc="http://creativecommons.org/ns#" xmlns:dc="http://purl.org/dc/elements/1.1/" xmlns:inkscape="http://www.inkscape.org/namespaces/inkscape" xmlns:rdf="http://www.w3.org/1999/02/22-rdf-syntax-ns#" xmlns:sodipodi="http://sodipodi.sourceforge.net/DTD/sodipodi-0.dtd" xmlns:svg="http://www.w3.org/2000/svg"><defs id="defs7"/><g id="g7290" transform="translate(-6573.6974,-4484.2902)"><path d="m 3776.7217,2330.9358 c 0,19.5972 -15.8867,35.4839 -35.4839,35.4839 -19.5972,0 -35.4839,-15.8867 -35.4839,-35.4839 0,-19.5972 15.8867,-35.4839 35.4839,-35.4839 19.5972,0 35.4839,15.8867 35.4839,35.4839 z" id="path7211" style="fill:#333333;fill-opacity:1;fill-rule:nonzero;stroke:none" transform="matrix(-0.58374663,-1.0066771,1.0066771,-0.58374663,6533.8081,9689.947)"/><path d="m 3776.7217,2330.9358 c 0,19.5972 -15.8867,35.4839 -35.4839,35.4839 -19.5972,0 -35.4839,-15.8867 -35.4839,-35.4839 0,-19.5972 15.8867,-35.4839 35.4839,-35.4839 19.5972,0 35.4839,15.8867 35.4839,35.4839 z" id="path7213" style="fill:#333333;fill-opacity:1;fill-rule:nonzero;stroke:none" transform="matrix(-0.58374663,-1.0066771,1.0066771,-0.58374663,6833.1796,9706.997)"/><path d="m 6697.6875,5004.75 a 8.0007995,8.0007995 0 0 0 -4.2813,14.4688 l 96.6563,71.6562 c -0.57,-1.4726 -1.0754,-2.9797 -1.4687,-4.5312 -2.0947,-5.5279 -1.3154,-11.0067 0.062,-16.4376 l -85.7187,-63.5312 a 8.0007995,8.0007995 0 0 0 -5.25,-1.625 z m 296,15.2812 a 8.0007995,8.0007995 0 0 0 -4.3125,1.2188 l -94.5,56.7188 c -0.1067,8.1279 -3.6932,15.954 -7.7812,23.3437 l 110.5,-66.3437 a 8.0007995,8.0007995 0 0 0 -3.9063,-14.9376 z M 6766.4062,5129.75 6621,5166.0312 a 8.0007995,8.0007995 0 1 0 3.875,15.5 l 125.5312,-31.3124 c 0.4132,-0.8862 0.8522,-1.7614 1.2813,-2.625 3.3536,-7.4403 8.5498,-13.1873 14.7187,-17.8438 z m 172.875,43.2188 c 1.1305,5.9697 0.6862,12.4917 -1.8124,17.9062 L 7029,5250.25 a 8.0007995,8.0007995 0 1 0 8.6875,-13.4375 l -98.4063,-63.8437 z m -140.625,36.1562 -57.1562,149.2188 a 8.0007995,8.0007995 0 1 0 14.9375,5.7187 l 58.7813,-153.4063 c -5.5381,-0.4043 -11.0576,-0.9286 -16.5626,-1.5312 z" id="path7215" style="font-size:medium;font-style:normal;font-variant:normal;font-weight:normal;font-stretch:normal;text-indent:0;text-align:start;text-decoration:none;line-height:normal;letter-spacing:normal;word-spacing:normal;text-transform:none;direction:ltr;block-progression:tb;writing-mode:lr-tb;text-anchor:start;baseline-shift:baseline;color:#000000;fill:#333333;fill-opacity:1;stroke:none;stroke-width:15.99999905;marker:none;visibility:visible;display:inline;overflow:visible;enable-background:accumulate;font-family:Sans;-inkscape-font-specification:Sans" transform="translate(0,-448)"/><path d="m 3776.7217,2330.9358 c 0,19.5972 -15.8867,35.4839 -35.4839,35.4839 -19.5972,0 -35.4839,-15.8867 -35.4839,-35.4839 0,-19.5972 15.8867,-35.4839 35.4839,-35.4839 19.5972,0 35.4839,15.8867 35.4839,35.4839 z" id="path7227" style="fill:#333333;fill-opacity:1;fill-rule:nonzero;stroke:none" transform="matrix(-0.58374663,-1.0066771,1.0066771,-0.58374663,6875.8338,9926.3616)"/><path d="m 3776.7217,2330.9358 c 0,19.5972 -15.8867,35.4839 -35.4839,35.4839 -19.5972,0 -35.4839,-15.8867 -35.4839,-35.4839 0,-19.5972 15.8867,-35.4839 35.4839,-35.4839 19.5972,0 35.4839,15.8867 35.4839,35.4839 z" id="path7229" style="fill:#333333;fill-opacity:1;fill-rule:nonzero;stroke:none" transform="matrix(-0.58374663,-1.0066771,1.0066771,-0.58374663,6584.1093,10044.422)"/><path d="m 3776.7217,2330.9358 c 0,19.5972 -15.8867,35.4839 -35.4839,35.4839 -19.5972,0 -35.4839,-15.8867 -35.4839,-35.4839 0,-19.5972 15.8867,-35.4839 35.4839,-35.4839 19.5972,0 35.4839,15.8867 35.4839,35.4839 z" id="path7231" style="fill:#333333;fill-opacity:1;fill-rule:nonzero;stroke:none" transform="matrix(-0.58374663,-1.0066771,1.0066771,-0.58374663,6458.4316,9852.4783)"/><path d="m 6841.1243,4572.5946 c -36.0645,0 -35.6228,31.4763 -35.6228,31.4763 l -0.2313,16.729 c -2.9464,-0.04 -3.6497,2.8813 -3.6497,8.703 0,8.7259 5.3359,17.8586 10.1732,22.5751 1.6393,6.8598 4.7697,12.9008 8.9841,17.5052 -0.1467,0.09 -0.3067,0.1743 -0.4541,0.2642 l 0,0 c -14.3726,8.7671 -31.505,14.7051 -42.6994,20.6429 -3.0872,1.636 -6.3825,4.5043 -9.0504,8.1581 -1.8165,2.5134 -3.3959,5.2027 -4.7563,7.9929 -0.05,0.099 -0.1,0.1981 -0.1486,0.2972 -0.1861,0.3872 -0.3669,0.7817 -0.545,1.1725 -2.704,5.7865 -4.5243,11.9686 -5.582,18.1658 -0.022,0.1151 -0.045,0.2319 -0.066,0.3468 -0.048,0.291 -0.1035,0.5843 -0.1486,0.8753 -0.1895,1.0733 -0.3762,2.1325 -0.5284,3.1872 -0.1299,0.8688 -0.2969,2.7277 -0.2313,3.6331 -0.01,0.055 -0.012,0.1101 -0.017,0.1651 -0.399,5.6561 10.2227,7.4977 10.2227,7.4977 3.974,1.1752 11.2817,2.4751 20.1483,3.6661 15.8173,2.6105 32.0156,3.4913 47.9265,3.9799 1.5444,0.048 3.1586,0.077 4.8389,0.083 0.1029,0 0.2111,0 0.3137,0 0.8361,0 1.6954,0.01 2.5599,0 1.6803,-0.01 3.2944,-0.035 4.8389,-0.083 15.9039,-0.4884 32.0994,-1.3721 47.9099,-3.9799 8.8797,-1.192 16.2032,-2.4897 20.1814,-3.6661 0,0 10.6051,-1.8416 10.2062,-7.4977 -0.01,-0.055 -0.012,-0.11 -0.017,-0.1651 0.066,-0.9054 -0.1015,-2.7643 -0.2311,-3.6331 -0.2176,-1.507 -0.4649,-3.0324 -0.7598,-4.5745 -1.1714,-6.7776 -3.2488,-13.5334 -6.4078,-19.7676 -0.035,-0.07 -0.063,-0.1449 -0.099,-0.2147 -1.302,-2.6082 -2.7861,-5.1205 -4.492,-7.4809 -2.6679,-3.6538 -5.9797,-6.5221 -9.0669,-8.1581 -11.1944,-5.9378 -28.3269,-11.8758 -42.6994,-20.6429 l 0,0 c -0.1473,-0.09 -0.3074,-0.1738 -0.4541,-0.2642 4.2145,-4.6044 7.3448,-10.6454 8.9841,-17.5052 4.8373,-4.7165 10.1732,-13.8492 10.1732,-22.5751 0,-5.8217 -0.7198,-8.7428 -3.6663,-8.703 l -0.2147,-16.729 c 0,0 0.4417,-31.4763 -35.6228,-31.4763 z" id="path7235" style="fill:#00a1f1;fill-opacity:0.98039216;stroke:none"/></g></svg>