<?xml version="1.0" ?><!DOCTYPE svg  PUBLIC '-//W3C//DTD SVG 1.1//EN'  'http://www.w3.org/Graphics/SVG/1.1/DTD/svg11.dtd'><svg enable-background="new 0 0 256 256" height="256px" id="Layer_1" version="1.1" viewBox="0 0 256 256" width="256px" xml:space="preserve" xmlns="http://www.w3.org/2000/svg" xmlns:xlink="http://www.w3.org/1999/xlink"><g><path d="M190.014,82.163c0,8.61,12.949,8.61,12.949,0C202.963,73.782,190.014,73.782,190.014,82.163    L190.014,82.163z M184.051,127.054c-4.486,0.475-5.217-6.334-0.725-6.818l25.598-2.809c4.479-0.484,5.223,6.332,0.727,6.817    L184.051,127.054L184.051,127.054z M196.488,19.932c20.428,0,36.99,16.563,36.99,36.99c0,24.574-18.928,25.95-20.631,48.813    c7.969,0,5.422,6.872,1.734,6.872h-1.93c0.375,1.973-1.006,3.851-3.002,4.065l-25.6,2.809c-4.223,0.456-5.742-6.267-0.215-6.874    c-3.637,0-8.877,0.893-8.877-3.436c0-3.494,3.281-3.437,5.17-3.437c-1.703-23.055-20.631-25.614-20.631-48.813    C159.498,36.495,176.061,19.932,196.488,19.932L196.488,19.932z M188.064,104.607c4.08,0,14.232,0,16.848,0    c0.973-11.539,5.291-18.33,12.279-27.174c5.428-6.87,8.287-11.388,8.287-20.512c0-16.013-12.979-28.99-28.99-28.99    s-28.99,12.979-28.99,28.99c0,7.617,2.379,12.137,6.842,18.045C181.883,84.955,186.977,91.567,188.064,104.607L188.064,104.607z     M184.051,134.623c-4.486,0.477-5.217-6.333-0.725-6.817l25.598-2.81c4.479-0.483,5.223,6.334,0.727,6.818l-4.904,0.537    c3.137,1.668,1.963,6.473-1.607,6.473h-13.301c-2.336,0-3.975-2.277-3.273-4.477L184.051,134.623L184.051,134.623z     M193.064,67.652c0.488,4.383,6.352,4.387,6.848,0l3.197-27.979c0.541-4.945-4.762-3.795-10.268-3.795    c-2.01,0-3.199,1.638-2.977,3.795L193.064,67.652L193.064,67.652z M194.701,10.925c0.115,0.689,0.814,1.124,1.787,1.124    c0.971,0,1.67-0.435,1.789-1.124l1.67-9.621C200.064,0.562,199.443,0,198.393,0h-3.809c-1.051,0-1.672,0.562-1.555,1.304    L194.701,10.925L194.701,10.925z M217.254,16.01c-0.244,0.655,0.145,1.383,0.984,1.868c0.842,0.486,1.666,0.46,2.113-0.082    l6.256-7.494c0.473-0.585,0.215-1.383-0.693-1.908l-3.299-1.903c-0.908-0.526-1.73-0.349-2,0.352L217.254,16.01L217.254,16.01z     M234.244,31.69c-0.541,0.446-0.568,1.269-0.082,2.111c0.486,0.841,1.213,1.229,1.869,0.985l9.168-3.363    c0.699-0.271,0.877-1.09,0.352-1.998l-1.904-3.3c-0.525-0.908-1.324-1.165-1.908-0.693L234.244,31.69L234.244,31.69z     M241.115,53.765c-0.689,0.117-1.123,0.816-1.123,1.788c0,0.973,0.434,1.67,1.123,1.788l9.621,1.671    c0.742,0.116,1.305-0.505,1.305-1.555v-3.809c0-1.051-0.563-1.672-1.305-1.555L241.115,53.765L241.115,53.765z M236.031,76.318    c-0.656-0.243-1.383,0.144-1.869,0.986c-0.486,0.842-0.459,1.664,0.082,2.11l7.494,6.258c0.584,0.472,1.383,0.214,1.908-0.694    l1.904-3.299c0.525-0.909,0.348-1.729-0.352-1.998L236.031,76.318L236.031,76.318z M172.625,17.796    c0.447,0.54,1.27,0.568,2.111,0.082c0.842-0.485,1.23-1.213,0.986-1.868l-3.363-9.168c-0.27-0.7-1.09-0.878-1.998-0.352    l-3.301,1.903c-0.908,0.525-1.164,1.323-0.691,1.908L172.625,17.796L172.625,17.796z M156.945,34.787    c0.656,0.244,1.383-0.145,1.869-0.985c0.484-0.843,0.459-1.665-0.082-2.111l-7.496-6.258c-0.584-0.473-1.381-0.215-1.906,0.693    l-1.904,3.3c-0.525,0.908-0.35,1.728,0.352,1.998L156.945,34.787L156.945,34.787z M151.861,57.34    c0.689-0.117,1.123-0.814,1.123-1.787c0-0.972-0.434-1.671-1.123-1.789l-9.623-1.67c-0.74-0.117-1.305,0.504-1.305,1.555v3.809    c0,1.05,0.564,1.671,1.305,1.555L151.861,57.34L151.861,57.34z M158.732,79.415c0.539-0.446,0.566-1.269,0.082-2.11    c-0.486-0.843-1.213-1.231-1.869-0.986l-9.168,3.363c-0.701,0.27-0.877,1.089-0.352,1.998l1.904,3.299    c0.525,0.908,1.322,1.166,1.906,0.694L158.732,79.415L158.732,79.415z M74.971,171.626l48.848,4.927l-6.559-35.254    c-1.291-7.054,3.379-13.821,10.432-15.113c7.055-1.292,13.822,3.379,15.115,10.433l9.621,51.717    c1.291,7.054-3.379,13.821-10.434,15.114c-1.338,0.245-2.598,0.245-3.918,0.154l-44.604-3.061V256H41.363v-31.824l-8.15,14.57    L30.322,256H3.959l3.82-22.823c0.307-1.825,0.678-3.374,1.627-5.069l17.217-30.775C35.361,181.711,46.703,168.775,74.971,171.626    L74.971,171.626z M67.939,98.795c-17.303,0-31.328,14.026-31.328,31.328s14.025,31.328,31.328,31.328s31.328-14.026,31.328-31.328    S85.242,98.795,67.939,98.795L67.939,98.795z" fill="#333333"/></g></svg>